# Blender 4.1.0
# www.blender.org
mtllib untitled.mtl
o Untitled
v 0.000000 0.000000 -80.000000
v 30.000000 0.000000 -40.000000
v -0.000000 0.000000 -40.000000
v 30.000000 0.000000 -80.000000
v -0.000000 40.000000 -80.000000
v -0.000000 37.488380 -79.921066
v -0.000000 40.000000 -79.921066
v -0.000000 0.315412 -45.013329
v -0.000000 1.256674 -49.947594
v -0.000000 2.808941 -54.724983
v -0.000000 4.947733 -59.270145
v -0.000000 7.639320 -63.511410
v -0.000000 10.841255 -67.381882
v -0.000000 14.503040 -70.820526
v -0.000000 18.566929 -73.773117
v -0.000000 22.968828 -76.193085
v -0.000000 27.639320 -78.042259
v -0.000000 32.504749 -79.291489
v 30.000000 40.000000 0.000000
v 0.000000 0.000000 0.000000
v 30.000000 0.000000 0.000000
v -0.000000 40.000000 0.000000
v 30.000000 40.000000 -80.000000
v 30.000000 37.488380 -0.078931
v 30.000000 32.504749 -0.708510
v 30.000000 27.639320 -1.957739
v 30.000000 22.968828 -3.806918
v 30.000000 18.566929 -6.226883
v 30.000000 14.503040 -9.179470
v 30.000000 10.841255 -12.618115
v 30.000000 7.639320 -16.488590
v 30.000000 4.947733 -20.729853
v 30.000000 2.808941 -25.275019
v 30.000000 1.256674 -30.052404
v 30.000000 0.315412 -34.986671
v 30.000000 40.000000 -0.078931
v 30.000000 0.315412 -45.013329
v 30.000000 1.256674 -49.947594
v 30.000000 2.808941 -54.724983
v 30.000000 4.947733 -59.270145
v 30.000000 7.639320 -63.511410
v 30.000000 10.841255 -67.381882
v 30.000000 14.503040 -70.820526
v 30.000000 18.566929 -73.773117
v 30.000000 22.968828 -76.193085
v 30.000000 27.639320 -78.042259
v 30.000000 32.504749 -79.291489
v 30.000000 37.488380 -79.921066
v 30.000000 40.000000 -79.921066
v -0.000000 40.000000 -0.078931
v -0.000000 37.488380 -0.078931
v -0.000000 32.504749 -0.708510
v -0.000000 27.639320 -1.957739
v -0.000000 22.968828 -3.806918
v -0.000000 18.566929 -6.226883
v -0.000000 14.503040 -9.179470
v -0.000000 10.841255 -12.618115
v -0.000000 7.639320 -16.488590
v -0.000000 4.947733 -20.729853
v -0.000000 2.808941 -25.275019
v -0.000000 1.256674 -30.052404
v -0.000000 0.315412 -34.986671
vn -0.0000 -1.0000 -0.0000
vn -1.0000 -0.0000 -0.0000
vn -0.0000 -0.0000 1.0000
vn -0.0000 -0.0000 -1.0000
vn 1.0000 -0.0000 -0.0000
vn -0.0000 1.0000 -0.0000
vn -0.0000 0.9823 0.1874
vn -0.0000 0.9511 0.3090
vn -0.0000 0.9048 0.4258
vn -0.0000 0.8443 0.5358
vn -0.0000 0.7705 0.6374
vn -0.0000 0.6845 0.7290
vn -0.0000 0.5878 0.8090
vn -0.0000 0.4818 0.8763
vn -0.0000 0.3681 0.9298
vn -0.0000 0.2487 0.9686
vn -0.0000 0.1253 0.9921
vn -0.0000 0.1253 -0.9921
vn -0.0000 0.2487 -0.9686
vn -0.0000 0.3681 -0.9298
vn -0.0000 0.4818 -0.8763
vn -0.0000 0.5878 -0.8090
vn -0.0000 0.6845 -0.7290
vn -0.0000 0.7705 -0.6374
vn -0.0000 0.8443 -0.5358
vn -0.0000 0.9048 -0.4258
vn -0.0000 0.9511 -0.3090
vn -0.0000 0.9823 -0.1874
vn -0.0000 0.9980 -0.0628
vn -0.0000 0.9980 0.0628
s 0
f 1//1 2//1 3//1
f 2//1 1//1 4//1
f 5//2 6//2 7//2
f 8//2 1//2 3//2
f 1//2 8//2 9//2
f 1//2 9//2 10//2
f 1//2 10//2 11//2
f 1//2 11//2 12//2
f 1//2 12//2 13//2
f 1//2 13//2 14//2
f 1//2 14//2 15//2
f 1//2 15//2 16//2
f 1//2 16//2 17//2
f 1//2 17//2 18//2
f 1//2 18//2 6//2
f 1//2 6//2 5//2
f 19//3 20//3 21//3
f 20//3 19//3 22//3
f 5//4 4//4 1//4
f 4//4 5//4 23//4
f 21//5 24//5 19//5
f 24//5 21//5 25//5
f 25//5 21//5 26//5
f 26//5 21//5 27//5
f 27//5 21//5 28//5
f 28//5 21//5 29//5
f 29//5 21//5 30//5
f 30//5 21//5 31//5
f 31//5 21//5 32//5
f 32//5 21//5 33//5
f 33//5 21//5 34//5
f 34//5 21//5 35//5
f 35//5 21//5 2//5
f 36//5 19//5 24//5
f 4//5 37//5 2//5
f 37//5 4//5 38//5
f 38//5 4//5 39//5
f 39//5 4//5 40//5
f 40//5 4//5 41//5
f 41//5 4//5 42//5
f 42//5 4//5 43//5
f 43//5 4//5 44//5
f 44//5 4//5 45//5
f 45//5 4//5 46//5
f 46//5 4//5 47//5
f 47//5 4//5 48//5
f 48//5 4//5 49//5
f 49//5 4//5 23//5
f 19//6 50//6 22//6
f 50//6 19//6 36//6
f 49//6 5//6 7//6
f 5//6 49//6 23//6
f 37//7 9//7 8//7
f 9//7 37//7 38//7
f 38//8 10//8 9//8
f 10//8 38//8 39//8
f 39//9 11//9 10//9
f 11//9 39//9 40//9
f 40//10 12//10 11//10
f 12//10 40//10 41//10
f 41//11 13//11 12//11
f 13//11 41//11 42//11
f 43//12 13//12 42//12
f 13//12 43//12 14//12
f 44//13 14//13 43//13
f 14//13 44//13 15//13
f 45//14 15//14 44//14
f 15//14 45//14 16//14
f 46//15 16//15 45//15
f 16//15 46//15 17//15
f 47//16 17//16 46//16
f 17//16 47//16 18//16
f 48//17 18//17 47//17
f 18//17 48//17 6//17
f 49//3 6//3 48//3
f 6//3 49//3 7//3
f 50//4 24//4 51//4
f 24//4 50//4 36//4
f 51//18 25//18 52//18
f 25//18 51//18 24//18
f 52//19 26//19 53//19
f 26//19 52//19 25//19
f 53//20 27//20 54//20
f 27//20 53//20 26//20
f 54//21 28//21 55//21
f 28//21 54//21 27//21
f 55//22 29//22 56//22
f 29//22 55//22 28//22
f 56//23 30//23 57//23
f 30//23 56//23 29//23
f 30//24 58//24 57//24
f 58//24 30//24 31//24
f 31//25 59//25 58//25
f 59//25 31//25 32//25
f 32//26 60//26 59//26
f 60//26 32//26 33//26
f 33//27 61//27 60//27
f 61//27 33//27 34//27
f 34//28 62//28 61//28
f 62//28 34//28 35//28
f 50//2 20//2 22//2
f 20//2 50//2 51//2
f 20//2 51//2 52//2
f 20//2 52//2 53//2
f 20//2 53//2 54//2
f 20//2 54//2 55//2
f 20//2 55//2 56//2
f 20//2 56//2 57//2
f 20//2 57//2 58//2
f 20//2 58//2 59//2
f 20//2 59//2 60//2
f 20//2 60//2 61//2
f 20//2 61//2 62//2
f 20//2 62//2 3//2
f 2//1 20//1 3//1
f 20//1 2//1 21//1
f 35//29 3//29 62//29
f 3//29 35//29 2//29
f 2//30 8//30 3//30
f 8//30 2//30 37//30
